<?xml version="1.0" encoding="UTF-8" standalone="no"?>
<!DOCTYPE svg PUBLIC "-//W3C//DTD SVG 1.1//EN" "http://www.w3.org/Graphics/SVG/1.1/DTD/svg11.dtd">
<svg width="100%" height="100%" viewBox="0 0 3508 3508" version="1.1" xmlns="http://www.w3.org/2000/svg" xmlns:xlink="http://www.w3.org/1999/xlink" xml:space="preserve" xmlns:serif="http://www.serif.com/" style="fill-rule:evenodd;clip-rule:evenodd;stroke-linejoin:round;stroke-miterlimit:2;">
    <g transform="matrix(2.36661,0,0,2.36661,-2167.79,-1256.2)">
        <path d="M951.546,566.357L951.546,752.731L1137.92,752.731L1137.92,566.357L951.546,566.357ZM1217.8,566.357L1217.8,592.982L1164.55,592.982L1164.55,646.231L1217.8,646.231L1217.8,672.856L1244.42,672.856L1244.42,592.982L1271.05,592.982L1271.05,619.606L1297.67,619.606L1297.67,646.231L1350.92,646.231L1350.92,726.106L1377.54,726.106L1377.54,752.731L1350.92,752.731L1350.92,726.106L1324.3,726.106L1324.3,779.356L1271.05,779.356L1271.05,752.731L1244.42,752.731L1244.42,726.106L1217.8,726.106L1217.8,672.856L1164.55,672.856L1164.55,779.356L1244.42,779.356L1244.42,832.606L1271.05,832.606L1271.05,805.981L1297.67,805.981L1297.67,859.231L1350.92,859.231L1350.92,832.606L1324.3,832.606L1324.3,805.981L1350.92,805.981L1350.92,779.356L1377.54,779.356L1377.54,885.856L1404.17,885.856L1404.17,912.481L1377.54,912.481L1377.54,885.856L1297.67,885.856L1297.67,912.481L1324.3,912.481L1324.3,939.106L1350.92,939.106L1350.92,912.481L1377.54,912.481L1377.54,939.106L1457.42,939.106L1457.42,965.73L1377.54,965.73L1377.54,992.355L1404.17,992.355L1404.17,1018.98L1457.42,1018.98L1457.42,1045.61L1484.04,1045.61L1484.04,1072.23L1510.67,1072.23L1510.67,1018.98L1537.29,1018.98L1537.29,1045.61L1563.92,1045.61L1563.92,1072.23L1537.29,1072.23L1537.29,1152.11L1563.92,1152.11L1563.92,1178.73L1590.54,1178.73L1590.54,1152.11L1563.92,1152.11L1563.92,1125.48L1670.42,1125.48L1670.42,1152.11L1697.04,1152.11L1697.04,1125.48L1723.67,1125.48L1723.67,1205.36L1670.42,1205.36L1670.42,1152.11L1617.17,1152.11L1617.17,1205.36L1510.67,1205.36L1510.67,1231.98L1563.92,1231.98L1563.92,1258.61L1484.04,1258.61L1484.04,1231.98L1457.42,1231.98L1457.42,1205.36L1430.79,1205.36L1430.79,1258.61L1404.17,1258.61L1404.17,1285.23L1457.42,1285.23L1457.42,1258.61L1484.04,1258.61L1484.04,1311.85L1404.17,1311.85L1404.17,1285.23L1377.54,1285.23L1377.54,1338.48L1430.79,1338.48L1430.79,1365.1L1457.42,1365.1L1457.42,1391.73L1404.17,1391.73L1404.17,1365.1L1377.54,1365.1L1377.54,1391.73L1404.17,1391.73L1404.17,1418.35L1430.79,1418.35L1430.79,1444.98L1457.42,1444.98L1457.42,1418.35L1484.04,1418.35L1484.04,1444.98L1537.29,1444.98L1537.29,1471.6L1563.92,1471.6L1563.92,1444.98L1590.54,1444.98L1590.54,1418.35L1563.92,1418.35L1563.92,1365.1L1590.54,1365.1L1590.54,1418.35L1617.17,1418.35L1617.17,1365.1L1590.54,1365.1L1590.54,1338.48L1697.04,1338.48L1697.04,1365.1L1723.67,1365.1L1723.67,1391.73L1697.04,1391.73L1697.04,1471.6L1723.67,1471.6L1723.67,1498.23L1750.29,1498.23L1750.29,1524.85L1776.92,1524.85L1776.92,1551.48L1803.54,1551.48L1803.54,1578.1L1830.17,1578.1L1830.17,1604.73L1856.79,1604.73L1856.79,1631.35L1830.17,1631.35L1830.17,1604.73L1803.54,1604.73L1803.54,1631.35L1776.92,1631.35L1776.92,1791.1L1803.54,1791.1L1803.54,1817.73L1856.79,1817.73L1856.79,1844.35L1883.42,1844.35L1883.42,1870.98L1910.04,1870.98L1910.04,1897.6L1963.29,1897.6L1963.29,1977.48L2016.54,1977.48L2016.54,1950.85L1989.92,1950.85L1989.92,1924.23L2043.17,1924.23L2043.17,1977.48L2149.67,1977.48L2149.67,1924.23L2123.04,1924.23L2123.04,1897.6L2069.79,1897.6L2069.79,1924.23L2043.17,1924.23L2043.17,1897.6L2016.54,1897.6L2016.54,1870.98L2043.17,1870.98L2043.17,1817.73L2016.54,1817.73L2016.54,1764.48L1989.92,1764.48L1989.92,1791.1L1963.29,1791.1L1963.29,1764.48L1936.67,1764.48L1936.67,1737.85L1910.04,1737.85L1910.04,1684.6L1883.42,1684.6L1883.42,1711.23L1856.79,1711.23L1856.79,1764.48L1883.42,1764.48L1883.42,1791.1L1936.67,1791.1L1936.67,1817.73L1989.92,1817.73L1989.92,1844.35L1963.29,1844.35L1963.29,1870.98L1989.92,1870.98L1989.92,1897.6L1963.29,1897.6L1963.29,1870.98L1936.67,1870.98L1936.67,1817.73L1910.04,1817.73L1910.04,1844.35L1883.42,1844.35L1883.42,1791.1L1803.54,1791.1L1803.54,1737.85L1830.17,1737.85L1830.17,1711.23L1803.54,1711.23L1803.54,1657.98L1910.04,1657.98L1910.04,1684.6L1936.67,1684.6L1936.67,1604.73L1963.29,1604.73L1963.29,1631.35L1989.92,1631.35L1989.92,1657.98L2016.54,1657.98L2016.54,1684.6L2043.17,1684.6L2043.17,1737.85L2016.54,1737.85L2016.54,1684.6L1989.92,1684.6L1989.92,1657.98L1963.29,1657.98L1963.29,1684.6L1989.92,1684.6L1989.92,1737.85L2016.54,1737.85L2016.54,1764.48L2069.79,1764.48L2069.79,1737.85L2096.42,1737.85L2096.42,1711.23L2069.79,1711.23L2069.79,1684.6L2043.17,1684.6L2043.17,1657.98L2016.54,1657.98L2016.54,1631.35L2043.17,1631.35L2043.17,1578.1L2069.79,1578.1L2069.79,1551.48L2096.42,1551.48L2096.42,1604.73L2123.04,1604.73L2123.04,1631.35L2149.67,1631.35L2149.67,1657.98L2176.29,1657.98L2176.29,1684.6L2149.67,1684.6L2149.67,1657.98L2123.04,1657.98L2123.04,1631.35L2096.42,1631.35L2096.42,1604.73L2069.79,1604.73L2069.79,1631.35L2096.42,1631.35L2096.42,1657.98L2123.04,1657.98L2123.04,1684.6L2096.42,1684.6L2096.42,1711.23L2123.04,1711.23L2123.04,1844.35L2096.42,1844.35L2096.42,1791.1L2069.79,1791.1L2069.79,1844.35L2096.42,1844.35L2096.42,1870.98L2123.04,1870.98L2123.04,1897.6L2149.67,1897.6L2149.67,1924.23L2202.92,1924.23L2202.92,1950.85L2229.54,1950.85L2229.54,1977.48L2282.79,1977.48L2282.79,1924.23L2309.42,1924.23L2309.42,1977.48L2336.04,1977.48L2336.04,1897.6L2309.42,1897.6L2309.42,1844.35L2362.67,1844.35L2362.67,1817.73L2336.04,1817.73L2336.04,1791.1L2282.79,1791.1L2282.79,1764.48L2256.17,1764.48L2256.17,1711.23L2229.54,1711.23L2229.54,1631.35L2176.29,1631.35L2176.29,1604.73L2362.67,1604.73L2362.67,1498.23L2336.04,1498.23L2336.04,1444.98L2309.42,1444.98L2309.42,1471.6L2282.79,1471.6L2282.79,1444.98L2256.17,1444.98L2256.17,1524.85L2229.54,1524.85L2229.54,1498.23L2176.29,1498.23L2176.29,1471.6L2202.92,1471.6L2202.92,1444.98L2229.54,1444.98L2229.54,1418.35L2202.92,1418.35L2202.92,1391.73L2229.54,1391.73L2229.54,1418.35L2282.79,1418.35L2282.79,1391.73L2256.17,1391.73L2256.17,1365.1L2202.92,1365.1L2202.92,1338.48L2256.17,1338.48L2256.17,1258.61L2282.79,1258.61L2282.79,1231.98L2309.42,1231.98L2309.42,1285.23L2362.67,1285.23L2362.67,1231.98L2336.04,1231.98L2336.04,1178.73L2282.79,1178.73L2282.79,1152.11L2309.42,1152.11L2309.42,1125.48L2336.04,1125.48L2336.04,1152.11L2362.67,1152.11L2362.67,1098.86L2282.79,1098.86L2282.79,1072.23L2202.92,1072.23L2202.92,1045.61L2149.67,1045.61L2149.67,1018.98L2123.04,1018.98L2123.04,992.355L2149.67,992.355L2149.67,1018.98L2176.29,1018.98L2176.29,992.355L2149.67,992.355L2149.67,939.106L2123.04,939.106L2123.04,912.481L2149.67,912.481L2149.67,939.106L2229.54,939.106L2229.54,912.481L2256.17,912.481L2256.17,939.106L2282.79,939.106L2282.79,965.73L2309.42,965.73L2309.42,992.355L2336.04,992.355L2336.04,1018.98L2362.67,1018.98L2362.67,939.106L2336.04,939.106L2336.04,912.481L2282.79,912.481L2282.79,885.856L2256.17,885.856L2256.17,859.231L2282.79,859.231L2282.79,885.856L2309.42,885.856L2309.42,859.231L2336.04,859.231L2336.04,779.356L2282.79,779.356L2282.79,805.981L2256.17,805.981L2256.17,779.356L2176.29,779.356L2176.29,805.981L2202.92,805.981L2202.92,859.231L2229.54,859.231L2229.54,885.856L2202.92,885.856L2202.92,859.231L2176.29,859.231L2176.29,885.856L2202.92,885.856L2202.92,912.481L2176.29,912.481L2176.29,885.856L2096.42,885.856L2096.42,859.231L2123.04,859.231L2123.04,805.981L2149.67,805.981L2149.67,779.356L2123.04,779.356L2123.04,752.731L2096.42,752.731L2096.42,646.231L2069.79,646.231L2069.79,619.606L2096.42,619.606L2096.42,646.231L2123.04,646.231L2123.04,672.856L2149.67,672.856L2149.67,646.231L2123.04,646.231L2123.04,592.982L2096.42,592.982L2096.42,566.357L2069.79,566.357L2069.79,592.982L2043.17,592.982L2043.17,566.357L1936.67,566.357L1936.67,592.982L1910.04,592.982L1910.04,619.606L1936.67,619.606L1936.67,646.231L1963.29,646.231L1963.29,619.606L1989.92,619.606L1989.92,646.231L2016.54,646.231L2016.54,619.606L1989.92,619.606L1989.92,592.982L2043.17,592.982L2043.17,646.231L2069.79,646.231L2069.79,752.731L2096.42,752.731L2096.42,779.356L2069.79,779.356L2069.79,752.731L2043.17,752.731L2043.17,726.106L2016.54,726.106L2016.54,699.481L2043.17,699.481L2043.17,672.856L1963.29,672.856L1963.29,699.481L1989.92,699.481L1989.92,726.106L2016.54,726.106L2016.54,752.731L2043.17,752.731L2043.17,779.356L2016.54,779.356L2016.54,752.731L1989.92,752.731L1989.92,726.106L1963.29,726.106L1963.29,699.481L1910.04,699.481L1910.04,646.231L1856.79,646.231L1856.79,672.856L1883.42,672.856L1883.42,699.481L1910.04,699.481L1910.04,752.731L1936.67,752.731L1936.67,726.106L1963.29,726.106L1963.29,779.356L1989.92,779.356L1989.92,805.981L2043.17,805.981L2043.17,832.606L2069.79,832.606L2069.79,885.856L2043.17,885.856L2043.17,832.606L2016.54,832.606L2016.54,885.856L1963.29,885.856L1963.29,912.481L1989.92,912.481L1989.92,939.106L1963.29,939.106L1963.29,912.481L1936.67,912.481L1936.67,859.231L1856.79,859.231L1856.79,832.606L1830.17,832.606L1830.17,885.856L1856.79,885.856L1856.79,939.106L1883.42,939.106L1883.42,992.355L1910.04,992.355L1910.04,1018.98L1936.67,1018.98L1936.67,1045.61L1989.92,1045.61L1989.92,1125.48L2016.54,1125.48L2016.54,1152.11L1989.92,1152.11L1989.92,1178.73L1963.29,1178.73L1963.29,1152.11L1936.67,1152.11L1936.67,1098.86L1963.29,1098.86L1963.29,1072.23L1910.04,1072.23L1910.04,1018.98L1883.42,1018.98L1883.42,992.355L1856.79,992.355L1856.79,965.73L1830.17,965.73L1830.17,885.856L1803.54,885.856L1803.54,859.231L1776.92,859.231L1776.92,885.856L1723.67,885.856L1723.67,859.231L1697.04,859.231L1697.04,832.606L1723.67,832.606L1723.67,859.231L1750.29,859.231L1750.29,832.606L1723.67,832.606L1723.67,805.981L1776.92,805.981L1776.92,832.606L1803.54,832.606L1803.54,779.356L1723.67,779.356L1723.67,726.106L1750.29,726.106L1750.29,752.731L1776.92,752.731L1776.92,672.856L1750.29,672.856L1750.29,646.231L1776.92,646.231L1776.92,672.856L1803.54,672.856L1803.54,779.356L1856.79,779.356L1856.79,752.731L1830.17,752.731L1830.17,726.106L1856.79,726.106L1856.79,752.731L1883.42,752.731L1883.42,779.356L1910.04,779.356L1910.04,805.981L1883.42,805.981L1883.42,832.606L1936.67,832.606L1936.67,805.981L1963.29,805.981L1963.29,779.356L1910.04,779.356L1910.04,752.731L1883.42,752.731L1883.42,726.106L1856.79,726.106L1856.79,672.856L1803.54,672.856L1803.54,646.231L1776.92,646.231L1776.92,619.606L1803.54,619.606L1803.54,646.231L1830.17,646.231L1830.17,592.982L1803.54,592.982L1803.54,566.357L1697.04,566.357L1697.04,646.231L1723.67,646.231L1723.67,672.856L1750.29,672.856L1750.29,699.481L1723.67,699.481L1723.67,672.856L1670.42,672.856L1670.42,646.231L1643.79,646.231L1643.79,592.982L1670.42,592.982L1670.42,566.357L1537.29,566.357L1537.29,619.606L1563.92,619.606L1563.92,646.231L1590.54,646.231L1590.54,779.356L1563.92,779.356L1563.92,726.106L1537.29,726.106L1537.29,752.731L1510.67,752.731L1510.67,699.481L1563.92,699.481L1563.92,672.856L1537.29,672.856L1537.29,619.606L1510.67,619.606L1510.67,566.357L1430.79,566.357L1430.79,619.606L1404.17,619.606L1404.17,566.357L1377.54,566.357L1377.54,646.231L1350.92,646.231L1350.92,566.357L1297.67,566.357L1297.67,592.982L1271.05,592.982L1271.05,566.357L1217.8,566.357ZM1856.79,566.357L1856.79,592.982L1883.42,592.982L1883.42,566.357L1856.79,566.357ZM2176.29,566.357L2176.29,752.731L2362.67,752.731L2362.67,566.357L2176.29,566.357ZM1111.3,592.982L1111.3,726.106L978.171,726.106L978.171,592.982L1111.3,592.982ZM1484.04,592.982L1484.04,646.231L1510.67,646.231L1510.67,672.856L1484.04,672.856L1484.04,646.231L1457.42,646.231L1457.42,592.982L1484.04,592.982ZM1590.54,592.982L1590.54,619.606L1617.17,619.606L1617.17,646.231L1590.54,646.231L1590.54,619.606L1563.92,619.606L1563.92,592.982L1590.54,592.982ZM2336.04,592.982L2336.04,726.106L2202.92,726.106L2202.92,592.982L2336.04,592.982ZM1004.8,619.606L1004.8,699.481L1084.67,699.481L1084.67,619.606L1004.8,619.606ZM2229.54,619.606L2229.54,699.481L2309.42,699.481L2309.42,619.606L2229.54,619.606ZM1271.05,672.856L1271.05,699.481L1244.42,699.481L1244.42,726.106L1271.05,726.106L1271.05,752.731L1297.67,752.731L1297.67,699.481L1324.3,699.481L1324.3,672.856L1271.05,672.856ZM1404.17,672.856L1404.17,699.481L1377.54,699.481L1377.54,672.856L1404.17,672.856ZM1484.04,779.356L1510.67,779.356L1510.67,832.606L1484.04,832.606L1484.04,805.981L1457.42,805.981L1457.42,779.356L1430.79,779.356L1430.79,805.981L1457.42,805.981L1457.42,832.606L1484.04,832.606L1484.04,859.231L1510.67,859.231L1510.67,885.856L1537.29,885.856L1537.29,912.481L1590.54,912.481L1590.54,885.856L1537.29,885.856L1537.29,832.606L1563.92,832.606L1563.92,859.231L1590.54,859.231L1590.54,805.981L1670.42,805.981L1670.42,832.606L1643.79,832.606L1643.79,912.481L1617.17,912.481L1617.17,939.106L1670.42,939.106L1670.42,992.355L1697.04,992.355L1697.04,1018.98L1670.42,1018.98L1670.42,1045.61L1643.79,1045.61L1643.79,1072.23L1697.04,1072.23L1697.04,1098.86L1590.54,1098.86L1590.54,965.73L1563.92,965.73L1563.92,939.106L1510.67,939.106L1510.67,965.73L1563.92,965.73L1563.92,1018.98L1537.29,1018.98L1537.29,992.355L1484.04,992.355L1484.04,912.481L1457.42,912.481L1457.42,859.231L1430.79,859.231L1430.79,885.856L1404.17,885.856L1404.17,832.606L1430.79,832.606L1430.79,805.981L1404.17,805.981L1404.17,726.106L1430.79,726.106L1430.79,752.731L1457.42,752.731L1457.42,726.106L1430.79,726.106L1430.79,646.231L1457.42,646.231L1457.42,672.856L1484.04,672.856L1484.04,779.356ZM1697.04,699.481L1697.04,779.356L1617.17,779.356L1617.17,699.481L1697.04,699.481ZM1643.79,726.106L1643.79,752.731L1670.42,752.731L1670.42,726.106L1643.79,726.106ZM2123.04,726.106L2123.04,752.731L2149.67,752.731L2149.67,726.106L2123.04,726.106ZM1191.17,752.731L1191.17,726.106L1217.8,726.106L1217.8,752.731L1191.17,752.731ZM951.546,779.356L951.546,805.981L1004.8,805.981L1004.8,779.356L951.546,779.356ZM1031.42,779.356L1031.42,832.606L1058.05,832.606L1058.05,859.231L1031.42,859.231L1031.42,885.856L1084.67,885.856L1084.67,859.231L1137.92,859.231L1137.92,885.856L1111.3,885.856L1111.3,912.481L1137.92,912.481L1137.92,939.106L1084.67,939.106L1084.67,912.481L1031.42,912.481L1031.42,885.856L1004.8,885.856L1004.8,859.231L978.171,859.231L978.171,885.856L951.546,885.856L951.546,939.106L978.171,939.106L978.171,912.481L1004.8,912.481L1004.8,965.73L1031.42,965.73L1031.42,992.355L1004.8,992.355L1004.8,965.73L951.546,965.73L951.546,992.355L1004.8,992.355L1004.8,1045.61L1031.42,1045.61L1031.42,1018.98L1058.05,1018.98L1058.05,1072.23L1084.67,1072.23L1084.67,1045.61L1111.3,1045.61L1111.3,1072.23L1137.92,1072.23L1137.92,1098.86L1164.55,1098.86L1164.55,1125.48L1191.17,1125.48L1191.17,1098.86L1164.55,1098.86L1164.55,1018.98L1217.8,1018.98L1217.8,1045.61L1191.17,1045.61L1191.17,1072.23L1244.42,1072.23L1244.42,1098.86L1297.67,1098.86L1297.67,1125.48L1324.3,1125.48L1324.3,1152.11L1350.92,1152.11L1350.92,1178.73L1377.54,1178.73L1377.54,1231.98L1404.17,1231.98L1404.17,1178.73L1457.42,1178.73L1457.42,1098.86L1430.79,1098.86L1430.79,1125.48L1404.17,1125.48L1404.17,1152.11L1377.54,1152.11L1377.54,1125.48L1324.3,1125.48L1324.3,1098.86L1404.17,1098.86L1404.17,1072.23L1430.79,1072.23L1430.79,1045.61L1377.54,1045.61L1377.54,992.355L1297.67,992.355L1297.67,912.481L1271.05,912.481L1271.05,885.856L1244.42,885.856L1244.42,859.231L1217.8,859.231L1217.8,805.981L1191.17,805.981L1191.17,832.606L1164.55,832.606L1164.55,779.356L1111.3,779.356L1111.3,805.981L1137.92,805.981L1137.92,832.606L1111.3,832.606L1111.3,805.981L1084.67,805.981L1084.67,832.606L1058.05,832.606L1058.05,779.356L1031.42,779.356ZM2096.42,805.981L2096.42,832.606L2069.79,832.606L2069.79,805.981L2096.42,805.981ZM1164.55,885.856L1164.55,859.231L1217.8,859.231L1217.8,912.481L1191.17,912.481L1191.17,885.856L1164.55,885.856ZM1484.04,885.856L1484.04,912.481L1510.67,912.481L1510.67,885.856L1484.04,885.856ZM1910.04,885.856L1910.04,912.481L1883.42,912.481L1883.42,885.856L1910.04,885.856ZM1697.04,912.481L1697.04,939.106L1670.42,939.106L1670.42,912.481L1697.04,912.481ZM1776.92,912.481L1776.92,965.73L1723.67,965.73L1723.67,939.106L1750.29,939.106L1750.29,912.481L1776.92,912.481ZM2096.42,912.481L2096.42,939.106L2123.04,939.106L2123.04,965.73L2096.42,965.73L2096.42,939.106L2069.79,939.106L2069.79,992.355L2043.17,992.355L2043.17,965.73L2016.54,965.73L2016.54,912.481L2096.42,912.481ZM1164.55,939.106L1164.55,912.481L1191.17,912.481L1191.17,939.106L1164.55,939.106ZM1271.05,939.106L1271.05,965.73L1244.42,965.73L1244.42,992.355L1297.67,992.355L1297.67,1018.98L1324.3,1018.98L1324.3,1045.61L1350.92,1045.61L1350.92,1072.23L1297.67,1072.23L1297.67,1018.98L1217.8,1018.98L1217.8,939.106L1271.05,939.106ZM1936.67,939.106L1936.67,992.355L1910.04,992.355L1910.04,939.106L1936.67,939.106ZM1031.42,965.73L1031.42,939.106L1084.67,939.106L1084.67,965.73L1031.42,965.73ZM1191.17,965.73L1191.17,992.355L1111.3,992.355L1111.3,965.73L1191.17,965.73ZM2256.17,965.73L2256.17,992.355L2282.79,992.355L2282.79,965.73L2256.17,965.73ZM1617.17,992.355L1617.17,1018.98L1643.79,1018.98L1643.79,992.355L1617.17,992.355ZM1803.54,992.355L1803.54,1018.98L1883.42,1018.98L1883.42,1072.23L1910.04,1072.23L1910.04,1098.86L1883.42,1098.86L1883.42,1072.23L1830.17,1072.23L1830.17,1098.86L1803.54,1098.86L1803.54,1045.61L1776.92,1045.61L1776.92,1098.86L1803.54,1098.86L1803.54,1152.11L1776.92,1152.11L1776.92,1178.73L1750.29,1178.73L1750.29,1125.48L1776.92,1125.48L1776.92,1098.86L1750.29,1098.86L1750.29,1072.23L1723.67,1072.23L1723.67,1045.61L1750.29,1045.61L1750.29,1018.98L1776.92,1018.98L1776.92,992.355L1803.54,992.355ZM1989.92,992.355L1989.92,1018.98L1963.29,1018.98L1963.29,965.73L2016.54,965.73L2016.54,992.355L2043.17,992.355L2043.17,1018.98L2096.42,1018.98L2096.42,1045.61L2069.79,1045.61L2069.79,1072.23L2123.04,1072.23L2123.04,1045.61L2149.67,1045.61L2149.67,1072.23L2202.92,1072.23L2202.92,1098.86L2229.54,1098.86L2229.54,1152.11L2256.17,1152.11L2256.17,1178.73L2282.79,1178.73L2282.79,1205.36L2176.29,1205.36L2176.29,1178.73L2229.54,1178.73L2229.54,1152.11L2123.04,1152.11L2123.04,1125.48L2096.42,1125.48L2096.42,1098.86L2016.54,1098.86L2016.54,1072.23L2043.17,1072.23L2043.17,1045.61L2016.54,1045.61L2016.54,992.355L1989.92,992.355ZM2202.92,992.355L2202.92,1018.98L2229.54,1018.98L2229.54,1045.61L2256.17,1045.61L2256.17,992.355L2202.92,992.355ZM1058.05,1018.98L1058.05,992.355L1111.3,992.355L1111.3,1018.98L1137.92,1018.98L1137.92,1045.61L1111.3,1045.61L1111.3,1018.98L1058.05,1018.98ZM2282.79,1018.98L2282.79,1072.23L2362.67,1072.23L2362.67,1045.61L2336.04,1045.61L2336.04,1018.98L2282.79,1018.98ZM951.546,1045.61L951.546,1072.23L978.171,1072.23L978.171,1045.61L951.546,1045.61ZM1271.05,1045.61L1271.05,1072.23L1244.42,1072.23L1244.42,1045.61L1271.05,1045.61ZM1004.8,1072.23L1004.8,1098.86L1031.42,1098.86L1031.42,1125.48L1084.67,1125.48L1084.67,1152.11L1111.3,1152.11L1111.3,1178.73L1297.67,1178.73L1297.67,1231.98L1324.3,1231.98L1324.3,1178.73L1297.67,1178.73L1297.67,1152.11L1271.05,1152.11L1271.05,1125.48L1244.42,1125.48L1244.42,1098.86L1217.8,1098.86L1217.8,1152.11L1111.3,1152.11L1111.3,1125.48L1137.92,1125.48L1137.92,1098.86L1058.05,1098.86L1058.05,1072.23L1004.8,1072.23ZM1457.42,1072.23L1457.42,1098.86L1484.04,1098.86L1484.04,1072.23L1457.42,1072.23ZM978.171,1098.86L978.171,1125.48L1004.8,1125.48L1004.8,1152.11L1031.42,1152.11L1031.42,1178.73L1058.05,1178.73L1058.05,1205.36L1031.42,1205.36L1031.42,1258.61L1058.05,1258.61L1058.05,1311.85L1031.42,1311.85L1031.42,1338.48L978.171,1338.48L978.171,1365.1L1004.8,1365.1L1004.8,1391.73L1137.92,1391.73L1137.92,1418.35L1164.55,1418.35L1164.55,1444.98L1137.92,1444.98L1137.92,1418.35L1111.3,1418.35L1111.3,1444.98L1137.92,1444.98L1137.92,1471.6L1111.3,1471.6L1111.3,1444.98L1084.67,1444.98L1084.67,1524.85L1111.3,1524.85L1111.3,1551.48L1137.92,1551.48L1137.92,1578.1L1111.3,1578.1L1111.3,1604.73L1137.92,1604.73L1137.92,1631.35L1164.55,1631.35L1164.55,1737.85L1217.8,1737.85L1217.8,1764.48L1244.42,1764.48L1244.42,1737.85L1297.67,1737.85L1297.67,1791.1L1324.3,1791.1L1324.3,1817.73L1297.67,1817.73L1297.67,1844.35L1324.3,1844.35L1324.3,1897.6L1350.92,1897.6L1350.92,1924.23L1297.67,1924.23L1297.67,1897.6L1271.05,1897.6L1271.05,1791.1L1244.42,1791.1L1244.42,1817.73L1217.8,1817.73L1217.8,1764.48L1164.55,1764.48L1164.55,1737.85L1111.3,1737.85L1111.3,1764.48L1164.55,1764.48L1164.55,1817.73L1217.8,1817.73L1217.8,1844.35L1244.42,1844.35L1244.42,1870.98L1217.8,1870.98L1217.8,1844.35L1191.17,1844.35L1191.17,1870.98L1217.8,1870.98L1217.8,1897.6L1271.05,1897.6L1271.05,1924.23L1217.8,1924.23L1217.8,1897.6L1191.17,1897.6L1191.17,1870.98L1164.55,1870.98L1164.55,1897.6L1191.17,1897.6L1191.17,1924.23L1164.55,1924.23L1164.55,1977.48L1191.17,1977.48L1191.17,1950.85L1217.8,1950.85L1217.8,1977.48L1244.42,1977.48L1244.42,1950.85L1271.05,1950.85L1271.05,1977.48L1297.67,1977.48L1297.67,1950.85L1350.92,1950.85L1350.92,1977.48L1510.67,1977.48L1510.67,1924.23L1457.42,1924.23L1457.42,1897.6L1430.79,1897.6L1430.79,1870.98L1457.42,1870.98L1457.42,1897.6L1484.04,1897.6L1484.04,1870.98L1457.42,1870.98L1457.42,1791.1L1430.79,1791.1L1430.79,1764.48L1404.17,1764.48L1404.17,1791.1L1430.79,1791.1L1430.79,1817.73L1404.17,1817.73L1404.17,1791.1L1377.54,1791.1L1377.54,1817.73L1404.17,1817.73L1404.17,1844.35L1350.92,1844.35L1350.92,1791.1L1324.3,1791.1L1324.3,1764.48L1350.92,1764.48L1350.92,1737.85L1324.3,1737.85L1324.3,1711.23L1297.67,1711.23L1297.67,1684.6L1244.42,1684.6L1244.42,1657.98L1217.8,1657.98L1217.8,1684.6L1244.42,1684.6L1244.42,1711.23L1217.8,1711.23L1217.8,1684.6L1191.17,1684.6L1191.17,1631.35L1164.55,1631.35L1164.55,1604.73L1191.17,1604.73L1191.17,1578.1L1164.55,1578.1L1164.55,1551.48L1137.92,1551.48L1137.92,1524.85L1111.3,1524.85L1111.3,1498.23L1137.92,1498.23L1137.92,1524.85L1164.55,1524.85L1164.55,1551.48L1217.8,1551.48L1217.8,1631.35L1244.42,1631.35L1244.42,1657.98L1271.05,1657.98L1271.05,1604.73L1297.67,1604.73L1297.67,1631.35L1350.92,1631.35L1350.92,1604.73L1377.54,1604.73L1377.54,1631.35L1404.17,1631.35L1404.17,1657.98L1484.04,1657.98L1484.04,1711.23L1457.42,1711.23L1457.42,1737.85L1510.67,1737.85L1510.67,1711.23L1537.29,1711.23L1537.29,1791.1L1563.92,1791.1L1563.92,1817.73L1590.54,1817.73L1590.54,1897.6L1537.29,1897.6L1537.29,1870.98L1563.92,1870.98L1563.92,1817.73L1537.29,1817.73L1537.29,1844.35L1510.67,1844.35L1510.67,1897.6L1537.29,1897.6L1537.29,1950.85L1563.92,1950.85L1563.92,1924.23L1590.54,1924.23L1590.54,1977.48L1697.04,1977.48L1697.04,1950.85L1723.67,1950.85L1723.67,1977.48L1776.92,1977.48L1776.92,1924.23L1670.42,1924.23L1670.42,1897.6L1617.17,1897.6L1617.17,1870.98L1723.67,1870.98L1723.67,1897.6L1750.29,1897.6L1750.29,1844.35L1723.67,1844.35L1723.67,1764.48L1750.29,1764.48L1750.29,1684.6L1723.67,1684.6L1723.67,1711.23L1697.04,1711.23L1697.04,1684.6L1670.42,1684.6L1670.42,1711.23L1617.17,1711.23L1617.17,1737.85L1590.54,1737.85L1590.54,1711.23L1563.92,1711.23L1563.92,1684.6L1590.54,1684.6L1590.54,1657.98L1537.29,1657.98L1537.29,1631.35L1510.67,1631.35L1510.67,1578.1L1484.04,1578.1L1484.04,1551.48L1457.42,1551.48L1457.42,1524.85L1430.79,1524.85L1430.79,1498.23L1404.17,1498.23L1404.17,1551.48L1377.54,1551.48L1377.54,1578.1L1430.79,1578.1L1430.79,1604.73L1377.54,1604.73L1377.54,1578.1L1297.67,1578.1L1297.67,1551.48L1271.05,1551.48L1271.05,1524.85L1297.67,1524.85L1297.67,1471.6L1271.05,1471.6L1271.05,1444.98L1217.8,1444.98L1217.8,1418.35L1191.17,1418.35L1191.17,1365.1L1164.55,1365.1L1164.55,1338.48L1191.17,1338.48L1191.17,1311.85L1244.42,1311.85L1244.42,1338.48L1271.05,1338.48L1271.05,1365.1L1324.3,1365.1L1324.3,1391.73L1350.92,1391.73L1350.92,1285.23L1324.3,1285.23L1324.3,1311.85L1297.67,1311.85L1297.67,1338.48L1271.05,1338.48L1271.05,1258.61L1217.8,1258.61L1217.8,1285.23L1191.17,1285.23L1191.17,1205.36L1084.67,1205.36L1084.67,1178.73L1058.05,1178.73L1058.05,1152.11L1031.42,1152.11L1031.42,1125.48L1004.8,1125.48L1004.8,1098.86L978.171,1098.86ZM1883.42,1125.48L1883.42,1152.11L1910.04,1152.11L1910.04,1178.73L1936.67,1178.73L1936.67,1205.36L1963.29,1205.36L1963.29,1231.98L2043.17,1231.98L2043.17,1125.48L2096.42,1125.48L2096.42,1152.11L2123.04,1152.11L2123.04,1178.73L2149.67,1178.73L2149.67,1205.36L2096.42,1205.36L2096.42,1152.11L2069.79,1152.11L2069.79,1205.36L2096.42,1205.36L2096.42,1258.61L2123.04,1258.61L2123.04,1285.23L2096.42,1285.23L2096.42,1258.61L2043.17,1258.61L2043.17,1285.23L2069.79,1285.23L2069.79,1338.48L2123.04,1338.48L2123.04,1365.1L2069.79,1365.1L2069.79,1338.48L2016.54,1338.48L2016.54,1311.85L2043.17,1311.85L2043.17,1285.23L2016.54,1285.23L2016.54,1258.61L1989.92,1258.61L1989.92,1311.85L1963.29,1311.85L1963.29,1231.98L1936.67,1231.98L1936.67,1205.36L1910.04,1205.36L1910.04,1231.98L1856.79,1231.98L1856.79,1205.36L1803.54,1205.36L1803.54,1178.73L1856.79,1178.73L1856.79,1205.36L1883.42,1205.36L1883.42,1152.11L1830.17,1152.11L1830.17,1125.48L1883.42,1125.48ZM1484.04,1152.11L1484.04,1178.73L1537.29,1178.73L1537.29,1152.11L1484.04,1152.11ZM951.546,1178.73L951.546,1205.36L978.171,1205.36L978.171,1258.61L1004.8,1258.61L1004.8,1178.73L951.546,1178.73ZM1164.55,1231.98L1164.55,1311.85L1084.67,1311.85L1084.67,1231.98L1164.55,1231.98ZM1271.05,1231.98L1271.05,1258.61L1297.67,1258.61L1297.67,1231.98L1271.05,1231.98ZM1697.04,1231.98L1697.04,1311.85L1617.17,1311.85L1617.17,1231.98L1697.04,1231.98ZM1803.54,1231.98L1803.54,1258.61L1830.17,1258.61L1830.17,1231.98L1856.79,1231.98L1856.79,1258.61L1936.67,1258.61L1936.67,1311.85L1963.29,1311.85L1963.29,1365.1L1989.92,1365.1L1989.92,1338.48L2016.54,1338.48L2016.54,1391.73L2043.17,1391.73L2043.17,1365.1L2069.79,1365.1L2069.79,1391.73L2176.29,1391.73L2176.29,1444.98L2149.67,1444.98L2149.67,1418.35L2123.04,1418.35L2123.04,1444.98L2149.67,1444.98L2149.67,1498.23L2123.04,1498.23L2123.04,1471.6L2069.79,1471.6L2069.79,1498.23L2123.04,1498.23L2123.04,1551.48L2096.42,1551.48L2096.42,1524.85L2069.79,1524.85L2069.79,1498.23L2043.17,1498.23L2043.17,1471.6L2016.54,1471.6L2016.54,1444.98L2069.79,1444.98L2069.79,1418.35L2016.54,1418.35L2016.54,1391.73L1989.92,1391.73L1989.92,1418.35L1936.67,1418.35L1936.67,1365.1L1883.42,1365.1L1883.42,1418.35L1910.04,1418.35L1910.04,1444.98L1989.92,1444.98L1989.92,1578.1L2016.54,1578.1L2016.54,1604.73L1989.92,1604.73L1989.92,1578.1L1963.29,1578.1L1963.29,1551.48L1936.67,1551.48L1936.67,1524.85L1856.79,1524.85L1856.79,1498.23L1830.17,1498.23L1830.17,1524.85L1856.79,1524.85L1856.79,1578.1L1883.42,1578.1L1883.42,1604.73L1856.79,1604.73L1856.79,1578.1L1830.17,1578.1L1830.17,1524.85L1803.54,1524.85L1803.54,1471.6L1776.92,1471.6L1776.92,1498.23L1750.29,1498.23L1750.29,1471.6L1723.67,1471.6L1723.67,1418.35L1750.29,1418.35L1750.29,1444.98L1803.54,1444.98L1803.54,1471.6L1830.17,1471.6L1830.17,1444.98L1803.54,1444.98L1803.54,1391.73L1750.29,1391.73L1750.29,1365.1L1723.67,1365.1L1723.67,1311.85L1750.29,1311.85L1750.29,1338.48L1776.92,1338.48L1776.92,1311.85L1750.29,1311.85L1750.29,1285.23L1723.67,1285.23L1723.67,1231.98L1803.54,1231.98ZM2229.54,1231.98L2229.54,1311.85L2149.67,1311.85L2149.67,1231.98L2229.54,1231.98ZM1111.3,1258.61L1111.3,1285.23L1137.92,1285.23L1137.92,1258.61L1111.3,1258.61ZM1643.79,1258.61L1643.79,1285.23L1670.42,1285.23L1670.42,1258.61L1643.79,1258.61ZM1776.92,1258.61L1776.92,1311.85L1803.54,1311.85L1803.54,1258.61L1776.92,1258.61ZM2176.29,1258.61L2176.29,1285.23L2202.92,1285.23L2202.92,1258.61L2176.29,1258.61ZM951.546,1285.23L951.546,1311.85L978.171,1311.85L978.171,1285.23L951.546,1285.23ZM1563.92,1285.23L1563.92,1338.48L1537.29,1338.48L1537.29,1365.1L1510.67,1365.1L1510.67,1311.85L1537.29,1311.85L1537.29,1285.23L1563.92,1285.23ZM1830.17,1311.85L1830.17,1338.48L1856.79,1338.48L1856.79,1311.85L1830.17,1311.85ZM1883.42,1311.85L1883.42,1338.48L1936.67,1338.48L1936.67,1311.85L1883.42,1311.85ZM2309.42,1311.85L2309.42,1338.48L2282.79,1338.48L2282.79,1365.1L2309.42,1365.1L2309.42,1418.35L2336.04,1418.35L2336.04,1444.98L2362.67,1444.98L2362.67,1418.35L2336.04,1418.35L2336.04,1391.73L2362.67,1391.73L2362.67,1365.1L2336.04,1365.1L2336.04,1311.85L2309.42,1311.85ZM1084.67,1338.48L1084.67,1365.1L1058.05,1365.1L1058.05,1338.48L1084.67,1338.48ZM1137.92,1338.48L1137.92,1365.1L1111.3,1365.1L1111.3,1338.48L1137.92,1338.48ZM1217.8,1338.48L1217.8,1418.35L1324.3,1418.35L1324.3,1391.73L1271.05,1391.73L1271.05,1365.1L1244.42,1365.1L1244.42,1338.48L1217.8,1338.48ZM1484.04,1338.48L1484.04,1365.1L1457.42,1365.1L1457.42,1338.48L1484.04,1338.48ZM1803.54,1338.48L1803.54,1391.73L1856.79,1391.73L1856.79,1365.1L1830.17,1365.1L1830.17,1338.48L1803.54,1338.48ZM1510.67,1391.73L1510.67,1418.35L1484.04,1418.35L1484.04,1391.73L1510.67,1391.73ZM1643.79,1391.73L1643.79,1418.35L1670.42,1418.35L1670.42,1391.73L1643.79,1391.73ZM951.546,1418.35L951.546,1444.98L978.171,1444.98L978.171,1418.35L951.546,1418.35ZM1004.8,1418.35L1004.8,1498.23L978.171,1498.23L978.171,1471.6L951.546,1471.6L951.546,1524.85L1004.8,1524.85L1004.8,1551.48L978.171,1551.48L978.171,1604.73L951.546,1604.73L951.546,1631.35L978.171,1631.35L978.171,1657.98L951.546,1657.98L951.546,1711.23L978.171,1711.23L978.171,1737.85L1031.42,1737.85L1031.42,1764.48L1058.05,1764.48L1058.05,1737.85L1031.42,1737.85L1031.42,1711.23L1004.8,1711.23L1004.8,1684.6L1031.42,1684.6L1031.42,1711.23L1137.92,1711.23L1137.92,1684.6L1111.3,1684.6L1111.3,1657.98L1137.92,1657.98L1137.92,1631.35L1111.3,1631.35L1111.3,1604.73L1058.05,1604.73L1058.05,1631.35L1084.67,1631.35L1084.67,1657.98L1058.05,1657.98L1058.05,1684.6L1031.42,1684.6L1031.42,1657.98L1004.8,1657.98L1004.8,1604.73L1031.42,1604.73L1031.42,1578.1L1058.05,1578.1L1058.05,1551.48L1031.42,1551.48L1031.42,1524.85L1058.05,1524.85L1058.05,1551.48L1084.67,1551.48L1084.67,1524.85L1058.05,1524.85L1058.05,1498.23L1031.42,1498.23L1031.42,1471.6L1058.05,1471.6L1058.05,1444.98L1031.42,1444.98L1031.42,1418.35L1004.8,1418.35ZM1377.54,1418.35L1377.54,1444.98L1404.17,1444.98L1404.17,1418.35L1377.54,1418.35ZM1856.79,1418.35L1856.79,1444.98L1883.42,1444.98L1883.42,1418.35L1856.79,1418.35ZM1350.92,1444.98L1350.92,1471.6L1377.54,1471.6L1377.54,1444.98L1350.92,1444.98ZM1617.17,1444.98L1617.17,1471.6L1590.54,1471.6L1590.54,1498.23L1643.79,1498.23L1643.79,1471.6L1670.42,1471.6L1670.42,1444.98L1617.17,1444.98ZM1191.17,1471.6L1191.17,1444.98L1217.8,1444.98L1217.8,1471.6L1271.05,1471.6L1271.05,1498.23L1217.8,1498.23L1217.8,1471.6L1191.17,1471.6ZM1484.04,1471.6L1484.04,1498.23L1457.42,1498.23L1457.42,1524.85L1484.04,1524.85L1484.04,1551.48L1510.67,1551.48L1510.67,1524.85L1537.29,1524.85L1537.29,1551.48L1563.92,1551.48L1563.92,1524.85L1537.29,1524.85L1537.29,1498.23L1510.67,1498.23L1510.67,1471.6L1484.04,1471.6ZM1856.79,1471.6L1856.79,1498.23L1883.42,1498.23L1883.42,1471.6L1856.79,1471.6ZM1936.67,1471.6L1936.67,1498.23L1963.29,1498.23L1963.29,1471.6L1936.67,1471.6ZM1164.55,1498.23L1164.55,1471.6L1191.17,1471.6L1191.17,1498.23L1217.8,1498.23L1217.8,1524.85L1191.17,1524.85L1191.17,1498.23L1164.55,1498.23ZM1324.3,1498.23L1324.3,1551.48L1350.92,1551.48L1350.92,1498.23L1324.3,1498.23ZM1670.42,1498.23L1670.42,1524.85L1643.79,1524.85L1643.79,1551.48L1617.17,1551.48L1617.17,1578.1L1643.79,1578.1L1643.79,1631.35L1590.54,1631.35L1590.54,1657.98L1697.04,1657.98L1697.04,1631.35L1670.42,1631.35L1670.42,1578.1L1697.04,1578.1L1697.04,1498.23L1670.42,1498.23ZM1723.67,1524.85L1723.67,1551.48L1750.29,1551.48L1750.29,1524.85L1723.67,1524.85ZM2016.54,1524.85L2016.54,1498.23L2043.17,1498.23L2043.17,1524.85L2016.54,1524.85ZM2176.29,1524.85L2176.29,1551.48L2202.92,1551.48L2202.92,1578.1L2149.67,1578.1L2149.67,1524.85L2176.29,1524.85ZM2336.04,1524.85L2336.04,1578.1L2229.54,1578.1L2229.54,1551.48L2202.92,1551.48L2202.92,1524.85L2229.54,1524.85L2229.54,1551.48L2282.79,1551.48L2282.79,1524.85L2336.04,1524.85ZM1244.42,1578.1L1244.42,1551.48L1271.05,1551.48L1271.05,1578.1L1244.42,1578.1ZM1537.29,1578.1L1537.29,1631.35L1563.92,1631.35L1563.92,1604.73L1590.54,1604.73L1590.54,1578.1L1537.29,1578.1ZM1723.67,1578.1L1723.67,1631.35L1750.29,1631.35L1750.29,1604.73L1776.92,1604.73L1776.92,1578.1L1723.67,1578.1ZM1883.42,1578.1L1883.42,1551.48L1936.67,1551.48L1936.67,1578.1L1883.42,1578.1ZM1457.42,1604.73L1457.42,1578.1L1484.04,1578.1L1484.04,1604.73L1457.42,1604.73ZM2256.17,1631.35L2256.17,1684.6L2282.79,1684.6L2282.79,1657.98L2309.42,1657.98L2309.42,1711.23L2336.04,1711.23L2336.04,1737.85L2362.67,1737.85L2362.67,1684.6L2336.04,1684.6L2336.04,1631.35L2256.17,1631.35ZM1297.67,1657.98L1297.67,1684.6L1350.92,1684.6L1350.92,1657.98L1297.67,1657.98ZM1510.67,1657.98L1484.04,1657.98L1484.04,1631.35L1510.67,1631.35L1510.67,1657.98ZM1404.17,1684.6L1404.17,1711.23L1350.92,1711.23L1350.92,1737.85L1430.79,1737.85L1430.79,1764.48L1457.42,1764.48L1457.42,1791.1L1484.04,1791.1L1484.04,1817.73L1510.67,1817.73L1510.67,1791.1L1484.04,1791.1L1484.04,1764.48L1457.42,1764.48L1457.42,1737.85L1430.79,1737.85L1430.79,1684.6L1404.17,1684.6ZM1936.67,1711.23L1936.67,1737.85L1963.29,1737.85L1963.29,1711.23L1936.67,1711.23ZM2176.29,1737.85L2176.29,1711.23L2229.54,1711.23L2229.54,1737.85L2176.29,1737.85ZM2282.79,1737.85L2282.79,1764.48L2336.04,1764.48L2336.04,1737.85L2282.79,1737.85ZM1590.54,1791.1L1563.92,1791.1L1563.92,1737.85L1590.54,1737.85L1590.54,1791.1ZM1697.04,1764.48L1697.04,1844.35L1617.17,1844.35L1617.17,1764.48L1697.04,1764.48ZM1910.04,1764.48L1883.42,1764.48L1883.42,1737.85L1910.04,1737.85L1910.04,1764.48ZM2229.54,1764.48L2229.54,1844.35L2149.67,1844.35L2149.67,1764.48L2229.54,1764.48ZM951.546,1791.1L951.546,1977.48L1137.92,1977.48L1137.92,1791.1L951.546,1791.1ZM1643.79,1791.1L1643.79,1817.73L1670.42,1817.73L1670.42,1791.1L1643.79,1791.1ZM2176.29,1791.1L2176.29,1817.73L2202.92,1817.73L2202.92,1791.1L2176.29,1791.1ZM1111.3,1817.73L1111.3,1950.85L978.171,1950.85L978.171,1817.73L1111.3,1817.73ZM1750.29,1817.73L1750.29,1844.35L1776.92,1844.35L1776.92,1897.6L1803.54,1897.6L1803.54,1977.48L1883.42,1977.48L1883.42,1950.85L1856.79,1950.85L1856.79,1924.23L1830.17,1924.23L1830.17,1897.6L1803.54,1897.6L1803.54,1870.98L1830.17,1870.98L1830.17,1844.35L1803.54,1844.35L1803.54,1817.73L1750.29,1817.73ZM2282.79,1844.35L2256.17,1844.35L2256.17,1791.1L2282.79,1791.1L2282.79,1844.35ZM1004.8,1844.35L1004.8,1924.23L1084.67,1924.23L1084.67,1844.35L1004.8,1844.35ZM1377.54,1870.98L1377.54,1897.6L1350.92,1897.6L1350.92,1870.98L1377.54,1870.98ZM1856.79,1870.98L1856.79,1897.6L1883.42,1897.6L1883.42,1870.98L1856.79,1870.98ZM2202.92,1870.98L2202.92,1897.6L2229.54,1897.6L2229.54,1924.23L2202.92,1924.23L2202.92,1897.6L2176.29,1897.6L2176.29,1870.98L2202.92,1870.98ZM2256.17,1870.98L2256.17,1897.6L2229.54,1897.6L2229.54,1870.98L2256.17,1870.98ZM2336.04,1870.98L2336.04,1897.6L2362.67,1897.6L2362.67,1870.98L2336.04,1870.98ZM1404.17,1924.23L1404.17,1950.85L1377.54,1950.85L1377.54,1924.23L1404.17,1924.23ZM1883.42,1924.23L1883.42,1950.85L1910.04,1950.85L1910.04,1977.48L1936.67,1977.48L1936.67,1950.85L1910.04,1950.85L1910.04,1924.23L1883.42,1924.23ZM1430.79,1950.85L1430.79,1924.23L1457.42,1924.23L1457.42,1950.85L1430.79,1950.85ZM1617.17,1950.85L1617.17,1924.23L1670.42,1924.23L1670.42,1950.85L1617.17,1950.85ZM2096.42,1950.85L2096.42,1924.23L2123.04,1924.23L2123.04,1950.85L2096.42,1950.85Z"/>
    </g>
</svg>
